<?xml version="1.0" encoding="UTF-8"?>
<svg id="Layer_1" data-name="Layer 1" xmlns="http://www.w3.org/2000/svg" width="100" height="65.57" viewBox="0 0 100 65.57">
  <g>
    <path d="M21.65,22.83c-.38.91-.93,1.7-1.63,2.37-.7.67-1.54,1.19-2.51,1.58-.97.38-2.04.58-3.21.58h-5.82v-14.93h5.82c1.16,0,2.23.19,3.21.56.97.38,1.81.9,2.51,1.57.7.67,1.25,1.45,1.63,2.36.38.9.58,1.88.58,2.93v.04c0,1.05-.19,2.03-.58,2.94ZM18.79,19.88c0-.65-.11-1.26-.33-1.81-.22-.55-.53-1.03-.92-1.43s-.86-.71-1.42-.93c-.55-.22-1.17-.33-1.83-.33h-2.54v9h2.54c.67,0,1.28-.11,1.83-.32.55-.21,1.03-.52,1.42-.92s.7-.87.92-1.41c.22-.54.33-1.14.33-1.81v-.04Z" fill="#ffdf66"/>
    <path d="M35.44,22.36c0,.11-.02.25-.03.41h-7.95c.16.74.48,1.3.97,1.67.49.38,1.1.56,1.82.56.54,0,1.02-.09,1.45-.28.43-.18.87-.48,1.32-.9l1.85,1.64c-.54.67-1.19,1.19-1.96,1.57-.77.38-1.67.56-2.71.56-.85,0-1.64-.14-2.38-.43s-1.36-.69-1.9-1.22c-.53-.53-.95-1.15-1.25-1.87-.3-.72-.45-1.52-.45-2.4v-.04c0-.81.14-1.58.42-2.3.28-.73.66-1.36,1.16-1.9.5-.54,1.09-.97,1.78-1.28.69-.31,1.45-.47,2.29-.47.95,0,1.78.17,2.47.51.7.34,1.27.8,1.74,1.38s.8,1.24,1.02,1.98c.22.75.33,1.52.33,2.33v.04c0,.16,0,.29-.01.4ZM31.54,18.98c-.41-.45-.96-.67-1.64-.67s-1.23.22-1.65.66-.69,1.03-.82,1.77h4.88c-.1-.72-.35-1.31-.77-1.76Z" fill="#ffdf66"/>
    <path d="M52.05,27.35v-6.36c0-.77-.16-1.34-.49-1.73-.33-.39-.8-.59-1.41-.59s-1.09.2-1.44.59c-.35.39-.52.97-.52,1.73v6.36h-3.24v-6.36c0-.77-.16-1.34-.49-1.73-.33-.39-.8-.59-1.41-.59s-1.09.2-1.44.59c-.35.39-.52.97-.52,1.73v6.36h-3.24v-11.43h3.24v1.63c.18-.24.39-.48.61-.7.22-.22.47-.42.74-.59.27-.17.57-.31.91-.41.33-.1.71-.15,1.12-.15.75,0,1.4.16,1.95.47s.97.77,1.27,1.35c.5-.6,1.05-1.06,1.66-1.36.61-.31,1.31-.46,2.09-.46,1.21,0,2.15.36,2.83,1.07.68.71,1.02,1.76,1.02,3.13v7.44h-3.24Z" fill="#ffdf66"/>
    <path d="M69.44,23.97c-.31.72-.75,1.35-1.3,1.89-.55.54-1.21.97-1.96,1.28-.75.31-1.58.47-2.47.47s-1.7-.15-2.45-.46c-.75-.31-1.4-.73-1.95-1.26-.55-.53-.98-1.16-1.29-1.88s-.47-1.49-.47-2.31v-.04c0-.82.16-1.6.47-2.31s.75-1.35,1.3-1.89c.55-.54,1.21-.97,1.96-1.28.75-.31,1.58-.47,2.47-.47s1.7.15,2.45.46c.75.31,1.4.73,1.95,1.26.55.53.98,1.16,1.29,1.88s.47,1.49.47,2.31v.04c0,.82-.16,1.6-.47,2.31ZM66.71,21.65c0-.43-.07-.83-.21-1.2-.14-.38-.35-.71-.62-1-.27-.29-.59-.52-.96-.69s-.77-.26-1.21-.26c-.47,0-.88.08-1.25.25-.36.16-.67.39-.93.67-.26.28-.45.61-.59.99-.13.38-.2.78-.2,1.21v.04c0,.43.07.83.21,1.21.14.38.35.71.62,1,.27.29.59.52.95.69.36.17.77.26,1.22.26s.88-.08,1.25-.25c.36-.16.67-.39.93-.67.26-.28.45-.61.59-.99.13-.38.2-.78.2-1.21v-.04Z" fill="#ffdf66"/>
    <path d="M23.93,52.93l-3.2-4.78h-2.58v4.78h-3.28v-14.93h6.82c1.78,0,3.16.43,4.14,1.3.99.87,1.48,2.08,1.48,3.62v.04c0,1.21-.29,2.19-.88,2.95-.59.76-1.36,1.32-2.31,1.67l3.64,5.33h-3.83ZM23.99,43.1c0-.71-.23-1.24-.68-1.6-.45-.35-1.09-.53-1.9-.53h-3.26v4.29h3.32c.81,0,1.43-.19,1.86-.58.43-.38.65-.9.65-1.54v-.04Z" fill="#ffdf66"/>
    <path d="M40.58,47.95c0,.11-.02.25-.03.4h-7.95c.16.74.48,1.3.97,1.67.49.38,1.1.56,1.82.56.54,0,1.02-.09,1.45-.28.43-.18.87-.48,1.32-.9l1.85,1.64c-.54.67-1.19,1.19-1.96,1.57-.77.38-1.67.57-2.71.57-.85,0-1.64-.14-2.38-.43s-1.36-.69-1.9-1.21c-.53-.53-.95-1.15-1.25-1.87s-.45-1.52-.45-2.4v-.04c0-.81.14-1.58.42-2.3.28-.72.66-1.36,1.16-1.9.5-.54,1.09-.97,1.78-1.28.69-.31,1.45-.47,2.29-.47.95,0,1.78.17,2.47.51.7.34,1.27.8,1.74,1.38.46.58.8,1.24,1.02,1.98.22.75.33,1.52.33,2.33v.04c0,.16,0,.29-.01.41ZM36.67,44.57c-.41-.45-.96-.67-1.64-.67s-1.23.22-1.65.66-.69,1.03-.82,1.77h4.88c-.1-.72-.35-1.31-.77-1.76Z" fill="#ffdf66"/>
    <path d="M53.64,47.95c0,.11-.02.25-.03.4h-7.95c.16.74.48,1.3.97,1.67.49.38,1.1.56,1.82.56.54,0,1.02-.09,1.45-.28.43-.18.87-.48,1.32-.9l1.85,1.64c-.54.67-1.19,1.19-1.96,1.57-.77.38-1.67.57-2.71.57-.85,0-1.64-.14-2.38-.43s-1.36-.69-1.9-1.21c-.53-.53-.95-1.15-1.25-1.87s-.45-1.52-.45-2.4v-.04c0-.81.14-1.58.42-2.3.28-.72.66-1.36,1.16-1.9.5-.54,1.09-.97,1.78-1.28.69-.31,1.45-.47,2.29-.47.95,0,1.78.17,2.47.51.7.34,1.27.8,1.74,1.38.46.58.8,1.24,1.02,1.98.22.75.33,1.52.33,2.33v.04c0,.16,0,.29-.01.41ZM49.73,44.57c-.41-.45-.96-.67-1.64-.67s-1.23.22-1.65.66-.69,1.03-.82,1.77h4.88c-.1-.72-.35-1.31-.77-1.76Z" fill="#ffdf66"/>
    <path d="M56.21,52.93v-15.57h3.24v15.57h-3.24Z" fill="#ffdf66"/>
  </g>
  <path d="M82.51,0L17.45.04C7.82.04,0,7.17,0,15.91l.02,33.82c0,8.74,7.83,15.86,17.46,15.85l65.07-.04c9.62,0,17.45-7.13,17.45-15.87l-.02-33.82C99.97,7.11,92.14,0,82.51,0h0ZM96.19,48.79c-.19,5.01-2.87,11.21-13.64,10.24l-66.78,1.01c-9.43.01-11.58-5.16-11.58-10.32l-.02-33.82c0-5.16,3.61-10.62,12.92-10.63l65.44,1.22c9.79.66,13.16,1.62,13.66,8.15M96.18,14.65l.02,33.82c0,.11,0,.22,0,.33" fill="#ffdf66"/>
  <path d="M94.26,31.19l-17.45-9.54c-.72-.4-1.65-.43-2.41-.09-.77.34-1.24,1-1.24,1.72v19.08c0,.72.48,1.38,1.24,1.72.35.16.73.23,1.11.23.45,0,.91-.11,1.3-.32l17.45-9.54c.66-.36,1.06-.97,1.06-1.63,0-.66-.4-1.27-1.06-1.63h0ZM77.87,38.73v-11.83l10.81,5.91-10.81,5.91Z" fill="#ffdf66"/>
</svg>