<?xml version="1.0" encoding="UTF-8"?>
<svg id="Layer_1" data-name="Layer 1" xmlns="http://www.w3.org/2000/svg" viewBox="0 0 1632.09 612.7">
  <defs>
    <style>
      .cls-1 {
        font-family: Gotham-Bold, Gotham;
        font-size: 199.35px;
        font-weight: 700;
      }

      .cls-1, .cls-2 {
        fill: #ffdf66;
      }
    </style>
  </defs>
  <text class="cls-1" transform="translate(125.51 375.48)"><tspan x="0" y="0">Demo Reel </tspan></text>
  <path class="cls-2" d="M1347,0H284.92C127.72,0,0,66.56,0,148.28v316.14c0,81.72,127.72,148.28,284.92,148.28h1062.25c157.03,0,284.92-66.56,284.92-148.28V148.28C1631.92,66.56,1504.2,0,1347,0h0ZM1569.9,456.24c-3.15,46.84-46.9,104.76-222.73,95.71l-1090.17,9.05c-153.92.05-189-48.31-189-96.58V148.28c0-48.27,59-99.28,211-99.28l1068.17,11.75c159.83,6.25,214.83,15.25,222.83,76.25M1570,137v316.14c0,1.04-.03,2.07-.1,3.1"/>
  <path class="cls-2" d="M1506.08,281.39l-163.24-89.17c-6.78-3.7-15.45-4.01-22.55-.83-7.16,3.18-11.56,9.37-11.56,16.08v178.33c0,6.71,4.46,12.86,11.56,16.08,3.27,1.46,6.85,2.19,10.43,2.19,4.21,0,8.48-.99,12.12-3.02l163.24-89.17c6.16-3.38,9.92-9.11,9.92-15.25-.06-6.14-3.77-11.87-9.92-15.25h0ZM1352.76,351.92v-110.56l101.18,55.28-101.18,55.28Z"/>
</svg>